<svg xmlns="http://www.w3.org/2000/svg" width="32" height="33" viewBox="0 0 32 33">
  <path fill="#5B6282" d="M31.893,13.504375 C31.823,12.981625 31.566,12.0561875 31.566,12.0561875 C31.566,12.0561875 31.286,12.83925 30.936,14.0961875 C31.489,8.5818125 28.716,5.2561875 28.053,4.86625 C28.053,4.86625 28.086,5.055375 28.143,5.3900625 C27.275,3.9408125 25.955,3.25975 25.955,3.25975 C25.955,3.25975 26.004,3.56575 26.08,4.16925 C23.413,1.5884375 19.882,0 16,0 C11.45,0 7.374,2.17175 4.621,5.5813125 C3.779,4.539 3.702,3.0886875 3.702,3.0886875 C3.702,3.0886875 1.707,5.2030625 2.089,9.0748125 C1.317,10.23825 0.593,11.6226875 0,15.17675 C0,15.17675 0.002,15.1714375 0.005,15.161875 C0.004,15.1693125 0.003,15.1756875 0.001,15.1820625 C0.001,15.1820625 0.011,15.147 0.031,15.0864375 C0.026,15.113 0.022,15.1385 0.017,15.166125 C0.017,15.166125 0.019,15.15975 0.022,15.15125 C0.021,15.157625 0.02,15.1650625 0.019,15.1714375 C0.019,15.1714375 0.052,15.062 0.117,14.877125 C0.118,14.8718125 0.119,14.8665 0.12,14.8611875 C0.236,14.5318125 0.452,13.9729375 0.768,13.3609375 C0.766,13.36625 0.765,13.3715625 0.763,13.376875 C0.76,13.38325 0.757,13.389625 0.753,13.396 C0.756,13.389625 0.76,13.38325 0.763,13.376875 C0.388,14.6359375 0.101,16.5696875 0.275,19.4405625 C0.275,19.4395 0.275,19.4363125 0.275,19.4341875 C0.275,19.4384375 0.275,19.441625 0.276,19.445875 C0.277,19.4278125 0.281,19.3885 0.288,19.3300625 C0.29,19.360875 0.291,19.3916875 0.293,19.4235625 C0.293,19.4214375 0.293,19.41825 0.294,19.4171875 C0.294,19.4214375 0.294,19.4256875 0.295,19.4299375 C0.298,19.3874375 0.315,19.2259375 0.35,18.9751875 C0.35,18.9709375 0.35,18.96775 0.35,18.9635 C0.396,18.634125 0.472,18.153875 0.588,17.5918125 C0.716,20.0844375 1.359,22.3635 2.55,24.5299375 C3.637,26.5083125 6.262,30.8921875 13.629,32.8046875 C13.042,32.6346875 12.409,32.093875 12.409,32.093875 C13.613,32.504 15.767,33.0023125 17.032,32.93325 C16.872,32.8525 16.317,32.5050625 16.317,32.5050625 C20.54,32.756875 25.39,31.22475 25.995,28.764 C26.289,28.6014375 26.592,28.413375 26.902,28.1891875 C28.823,26.8036875 31.246,23.670375 30.471,21.4455 C31.621,19.01025 32.269,16.1170625 31.893,13.504375 Z M25.952,7.06775 C25.154,6.3271875 24.03,5.641875 23.237,5.5770625 C24.596,6.6501875 26.862,9.823875 26.65,14.6285 C26.038,12.968875 25.199,12.2793125 25.199,12.2793125 C25.477,15.6516875 25.56,16.8555 24.981,19.25675 C24.813,18.48325 24.586,18.0508125 24.586,18.0508125 C24.343,20.903625 22.569,24.2430625 21.777,23.6650625 C21.776,23.664 21.774,23.6629375 21.774,23.661875 C21.797,23.453625 21.817,23.2358125 21.765,23.096625 C21.765,23.096625 21.396,23.3101875 21.172,23.627875 C20.892,24.0241875 19.968,24.8996875 19.759,24.7445625 C19.954,24.6808125 20.11,24.4173125 20.152,24.1580625 C19.029,24.992125 16.642,25.3374375 14.071,23.9710625 C14.408,23.9306875 14.913,23.80425 15.297,24.0454375 C14.912,23.5991875 13.983,23.691625 13.317,23.4685 C12.737,23.2740625 11.981,22.41025 11.546,21.9725 C11.559,21.9756875 13.335,22.527125 15.377,21.7993125 C15.731,21.672875 16.046,21.4996875 16.314,21.3020625 C17.05,20.76125 18.109,19.9611875 18.595,20.0461875 C18.614,20.049375 18.633,20.0504375 18.652,20.05575 C19.238,20.1949375 19.629,19.5701875 19.172,19.0145 C18.717,18.4588125 17.511,17.408 16.112,18.111375 C12.27,20.045125 9.708,17.187 10.152,15.5114375 C10.235,15.1969375 10.552,14.7804375 10.686,14.7528125 C11.432,14.647625 12.085,15.2840625 12.085,15.2840625 C12.085,15.2840625 12.444,14.1131875 12.162,13.09 C12.811,12.223 15.097,11.45375 15.567,10.2329375 C15.678,9.9439375 15.805,9.265 15.44,9.122625 C14.835,8.9685625 13.396,8.96325 12.865,8.9685625 C11.852,8.9770625 11.381,8.0420625 11.225,7.64575 C11.225,7.6468125 11.224,7.6489375 11.224,7.65 C11.223,7.6468125 11.221,7.6425625 11.22,7.6383125 C11.514,6.50675 11.824,5.76725 13.376,4.4061875 C10.712,3.9960625 9.173,6.256 9.171,6.258125 C8.361,6.0445625 7.627,5.9925 6.951,6.03925 C9.294,3.6220625 12.484,2.125 16,2.125 C19.992,2.125 23.566,4.05025 25.952,7.06775 Z"/>
</svg>
