<svg xmlns="http://www.w3.org/2000/svg" width="33" height="33" viewBox="0 0 33 33">
  <path fill="#5B6282" d="M16.5,0.408375 C7.38375,0.408375 0,7.79625 0,16.908375 C0,24.2 4.72725,30.383375 11.281875,32.56275 C12.106875,32.718125 12.409375,32.208 12.409375,31.769375 C12.409375,31.3775 12.395625,30.339375 12.38875,28.964375 C7.799,29.959875 6.831,26.750625 6.831,26.750625 C6.08025,24.84625 4.995375,24.3375 4.995375,24.3375 C3.50075,23.3145 5.110875,23.335125 5.110875,23.335125 C6.76775,23.450625 7.638125,25.034625 7.638125,25.034625 C9.109375,27.55775 11.5005,26.829 12.44375,26.406875 C12.59225,25.339875 13.017125,24.6125 13.48875,24.2 C9.824375,23.7875 5.973,22.3685 5.973,16.04625 C5.973,14.245 6.612375,12.77375 7.671125,11.61875 C7.4855,11.202125 6.928625,9.524625 7.8155,7.25175 C7.8155,7.25175 9.197375,6.809 12.353,8.943 C13.673,8.575875 15.0755,8.394375 16.478,8.386125 C17.8805,8.394375 19.283,8.575875 20.603,8.943 C23.738,6.809 25.119875,7.25175 25.119875,7.25175 C26.00675,9.524625 25.449875,11.202125 25.284875,11.61875 C26.33675,12.77375 26.976125,14.245 26.976125,16.04625 C26.976125,22.385 23.11925,23.780625 19.448,24.18625 C20.0255,24.68125 20.56175,25.69325 20.56175,27.23875 C20.56175,29.447 20.541125,31.22075 20.541125,31.757 C20.541125,32.190125 20.829875,32.70575 21.6755,32.54075 C28.276875,30.3765 33,24.189 33,16.908375 C33,7.79625 25.612125,0.408375 16.5,0.408375"/>
</svg>
