<svg xmlns="http://www.w3.org/2000/svg" width="16" height="16" viewBox="0 0 16 16">
  <path fill="#5B6282" d="M14.6666667,0 L1.33333333,0 C0.596666667,0 0,0.596666667 0,1.33333333 L0,14.6666667 C0,15.4033333 0.596666667,16 1.33333333,16 L8.66666667,16 L8.66666667,10 L6.66666667,10 L6.66666667,7.33333333 L8.66666667,7.33333333 L8.66666667,5.60866667 C8.66666667,3.542 9.92866667,2.41666667 11.7726667,2.41666667 C12.656,2.41666667 13.4146667,2.48266667 13.636,2.512 L13.636,4.672 L12.3573333,4.67266667 C11.3546667,4.67266667 11.1606667,5.14933333 11.1606667,5.848 L11.1606667,7.33333333 L14.1206667,7.33333333 L13.454,10 L11.1606667,10 L11.1606667,16 L14.6666667,16 C15.4033333,16 16,15.4033333 16,14.6666667 L16,1.33333333 C16,0.596666667 15.4033333,0 14.6666667,0 Z"/>
</svg>
