<svg xmlns="http://www.w3.org/2000/svg" width="34" height="34" viewBox="0 0 34 34">
  <g fill="#5B6282">
    <rect width="4.3" height="4.765" x="14.818" y="14.685" transform="rotate(-108.518 16.968 17.067)"/>
    <rect width="4.3" height="4.765" x="14.818" y="14.685" transform="rotate(-108.518 16.968 17.067)"/>
    <path d="M31.7,12.3411765 C28.4,0.694117647 23.6,-2.05882353 12.6,1.43529412 C1.6,4.92941176 -1,10.0117647 2.3,21.6588235 C5.6,33.3058824 10.4,36.0588235 21.4,32.5647059 C32.4,29.0705882 35,23.9882353 31.7,12.3411765 Z M26.1,19.8588235 L24,20.6 L24.7,22.8235294 C25,23.7764706 24.5,24.7294118 23.7,25.0470588 C23.5,25.1529412 23.3,25.1529412 23.1,25.1529412 C22.4,25.1529412 21.8,24.6235294 21.6,23.9882353 L20.9,21.7647059 L16.6,23.2470588 L17.3,25.4705882 C17.6,26.4235294 17.1,27.3764706 16.3,27.6941176 C16.1,27.8 15.9,27.8 15.7,27.8 C15,27.8 14.4,27.2705882 14.2,26.6352941 L13.5,24.4117647 L11.4,25.1529412 C11.2,25.2588235 11,25.2588235 10.8,25.2588235 C10.1,25.2588235 9.5,24.7294118 9.3,24.0941176 C9,23.1411765 9.5,22.1882353 10.3,21.8705882 L12.4,21.1294118 L11,16.6823529 L9,17.4235294 C8.8,17.5294118 8.6,17.5294118 8.4,17.5294118 C7.7,17.5294118 7.1,17 6.9,16.3647059 C6.6,15.4117647 7.1,14.4588235 7.9,14.1411765 L10,13.4 L9.3,11.1764706 C9,10.2235294 9.4,9.16470588 10.3,8.84705882 C11.2,8.52941176 12.1,9.05882353 12.4,9.90588235 L13.1,12.1294118 L17.4,10.6470588 L16.7,8.42352941 C16.4,7.47058824 16.9,6.51764706 17.7,6.2 C18.6,5.88235294 19.5,6.41176471 19.8,7.25882353 L20.5,9.58823529 L22.6,8.84705882 C23.5,8.52941176 24.4,9.05882353 24.7,9.90588235 C25,10.8588235 24.5,11.8117647 23.7,12.1294118 L21.6,12.8705882 L23,17.2117647 L25.1,16.4705882 C26,16.1529412 26.9,16.6823529 27.2,17.5294118 C27.4,18.5882353 27,19.5411765 26.1,19.8588235 Z"/>
  </g>
</svg>
