<svg xmlns="http://www.w3.org/2000/svg" width="40" height="33" viewBox="0 0 40 33">
  <path fill="#5B6282" d="M39.28456,4.23885 C37.83316,4.8807 36.28336,5.31795 34.65156,5.5176 C36.31452,4.50945 37.59372,2.9205 38.19888,1.02465 C36.63924,1.9404 34.91068,2.607 33.0706,2.97825 C31.60116,1.3959 29.50688,0.4059 27.18136,0.4059 C22.72548,0.4059 19.11256,4.04085 19.11256,8.51895 C19.11256,9.16245 19.18636,9.7812 19.32084,10.37355 C12.61324,10.0551 6.66824,6.8145 2.6896,1.91565 C1.98932,3.10695 1.59736,4.4913 1.59736,5.9994 C1.59736,8.8209 3.02416,11.30085 5.18568,12.7578 C3.8622,12.7149 2.61744,12.3486 1.53176,11.7414 L1.53176,11.84205 C1.53176,15.7773 4.30828,19.05915 8.0032,19.8066 C7.32588,19.98975 6.61084,20.08875 5.87776,20.08875 C5.3628,20.08875 4.86916,20.03925 4.37552,19.94685 C5.41036,23.1693 8.38532,25.5189 11.92608,25.5849 C9.17088,27.76125 5.67932,29.05815 1.9188,29.05815 C1.2792,29.05815 0.64124,29.0202 0,28.9476 C3.58996,31.2477 7.81952,32.59245 12.39348,32.59245 C27.24204,32.59245 35.35184,20.22405 35.35184,9.51555 C35.35184,9.1707 35.35184,8.82255 35.32724,8.47605 C36.90328,7.3392 38.27924,5.90205 39.36164,4.27185 L39.28456,4.23885 Z"/>
</svg>
