<svg xmlns="http://www.w3.org/2000/svg" width="29" height="32" viewBox="0 0 29 32">
  <path fill="#5B6282" d="M15,13.3479122 L15,18.6566078 L23.1818182,18.6566078 C22.9090909,20.95226 20.5909091,25.4000861 14.8636364,25.4000861 C9.81818182,25.4000861 5.72727273,20.95226 5.72727273,15.6435643 C5.72727273,10.3348687 9.81818182,5.88704261 14.8636364,5.88704261 C17.7272727,5.88704261 19.6363636,7.17834696 20.7272727,8.32617304 L24.6818182,4.30878174 C22.0909091,1.72617304 18.8181818,0.291390435 14.7272727,0.291390435 C6.54545455,0.00443391304 -3.55271368e-15,7.0348687 -3.55271368e-15,15.6435643 C-3.55271368e-15,24.25226 6.54545455,31.1392165 14.7272727,31.1392165 C24.9545455,31.1392165 30.1363636,22.2435643 28.6363636,13.3479122 L15,13.3479122 Z"/>
</svg>
