<svg xmlns="http://www.w3.org/2000/svg" width="20" height="16" viewBox="0 0 20 16">
  <path fill="#5B6282" d="M19.2,1.84 C18.48,2.16 17.76,2.4 16.96,2.48 C17.76,2 18.4,1.2 18.72,0.32 C17.92,0.8 17.12,1.12 16.24,1.28 C15.52,0.48 14.48,0 13.36,0 C11.2,0 9.44,1.76 9.44,3.92 C9.44,4.24 9.44,4.56 9.52,4.8 C6.16,4.64 3.28,3.04 1.36,0.64 C0.96,1.28 0.8,1.92 0.8,2.64 C0.8,4 1.52,5.2 2.56,5.92 C1.92,5.92 1.28,5.76 0.8,5.44 C0.8,5.44 0.8,5.44 0.8,5.52 C0.8,7.44 2.16,9.04 3.92,9.36 C3.6,9.44 3.28,9.52 2.88,9.52 C2.64,9.52 2.4,9.52 2.16,9.44 C2.64,11.04 4.08,12.16 5.84,12.16 C4.48,13.2 2.8,13.84 0.96,13.84 C0.64,13.84 0.32,13.84 1.77635684e-15,13.76 C1.76,14.88 3.84,15.52 6,15.52 C13.28,15.52 17.2,9.52 17.2,4.32 C17.2,4.16 17.2,4 17.2,3.84 C18,3.28 18.64,2.56 19.2,1.84 Z"/>
</svg>
