<svg xmlns="http://www.w3.org/2000/svg" width="32" height="34" viewBox="0 0 32 34">
  <path fill="#5B6282" d="M30.7,0 L1.3,0 C0.6,0 0,0.6375 0,1.38125 L0,32.5125 C0,33.3625 0.6,34 1.3,34 L17,34 L17,21.25 L13,21.25 L13,15.9375 L17,15.9375 L17,11.6875 C17,7.33125 19.6,5.1 23.3,5.1 C25.1,5.1 26.6,5.3125 27,5.3125 L27,9.88125 L24.4,9.88125 C22.4,9.88125 21.9,10.94375 21.9,12.43125 L21.9,15.9375 L26.9,15.9375 L25.9,21.25 L21.9,21.25 L22,34 L30.6,34 C31.3,34 31.9,33.3625 31.9,32.61875 L31.9,1.38125 C32,0.6375 31.4,0 30.7,0 Z"/>
</svg>
