<svg xmlns="http://www.w3.org/2000/svg" width="91" height="34" viewBox="0 0 91 34">
  <g fill="#5B6282">
    <path d="M86.0847183 4.726C86.1034841 2.20329751 84.2248508.123932598 81.8487324.0374 81.7868323.0337312477 81.7247874.0337312477 81.6628873.0374L57.0864789.0374 56.5898239 2.2406 81.6660915 2.2406 81.7173592 2.2406C82.9851052 2.26465387 84.0018905 3.36018558 84.0051761 4.7056 84.002556 4.91839339 83.9734665 5.12988806 83.918662 5.3346L80.2530282 21.9946C80.240382 22.0368767 80.2184123 22.0753416 80.1889437 22.1068 79.8440275 23.0400465 78.9996085 23.6575684 78.0549296 23.6674L78.003662 23.6674 54.1321831 23.6674C53.9257466 23.6694983 53.7264062 23.7476164 53.5682394 23.8884L47.6276056 29.8078 48.8355986 24.7894C48.8559815 24.7152575 48.8678167 24.6387659 48.8708451 24.5616 48.8823482 24.3283261 48.8025057 24.1003751 48.6502143 23.9316969 48.4979228 23.7630187 48.2867174 23.6686046 48.0665845 23.6708L4.40580986 23.6708C3.12532075 23.6670518 2.08915006 22.5645308 2.08915493 21.2058 2.08915493 21.1174 2.08915493 21.0256 2.10838028 20.9406 2.10557283 20.9100725 2.10557283 20.8793275 2.10838028 20.8488L5.77080986 4.216C5.7758913 4.19361371 5.78341879 4.17193358 5.79323944 4.1514 6.03127284 3.09683103 6.89399187 2.33351158 7.91443662 2.2746 7.93709978 2.26161281 7.96237981 2.25461508 7.9881338 2.2542L40.3508099 2.2542 40.8538732.0306 7.9881338.0306C7.85600012.0312159591 7.72415396.0437275041 7.59401408.068 5.79676978.254938666 4.29366646 1.59712231 3.81302817 3.4442 3.78500717 3.53117536 3.76147461 3.61970666 3.74253521 3.7094L.0801056338 20.3354C.0440803431 20.4958739.0247395098 20.6600542.0224295775 20.825.00884827254 20.9479966.00242763789 21.0717648.00320422535 21.1956-.00361171642 22.4390559.456036603 23.6343093 1.28076205 24.5177164 2.10548749 25.4011236 3.22753247 25.9001059 4.39940141 25.9046L46.1825 25.9046 44.8399296 31.7832C44.8196071 31.8954351 44.8067584 32.0090495 44.8014789 32.1232 44.7985656 32.7496209 45.1415762 33.3198235 45.6782828 33.5807522 46.2149895 33.8416808 46.8459569 33.7449935 47.291162 33.3336L54.9588732 25.8774 77.9972535 25.8978C78.0709507 25.8978 78.1510563 25.8978 78.2247535 25.8978 79.8693601 25.8082269 81.3327103 24.7617168 82.028169 23.1778 82.1426895 22.965484 82.2269148 22.7363265 82.2780986 22.4978L85.9437324 5.8582C86.0377453 5.48090242 86.0861967 5.09245833 86.0879225 4.7022M88.6480986 2.0366L88.8627817 2.0366C88.9767218 2.05059272 89.091385 2.0177421 89.1832042 1.9448 89.2497098 1.8849589 89.2863823 1.79583525 89.2825352 1.7034 89.2873867 1.59807024 89.2351278 1.49904914 89.1479577 1.4484 89.0573388 1.40572245 88.9586237 1.38593701 88.8595775 1.3906L88.654507 1.3906 88.6480986 2.0366zM88.6480986 3.2266L88.1065845 3.2266 88.1065845.9962 88.9909507.9962C89.2116781.976861592 89.4317695 1.04066341 89.6125704 1.1764 89.7447019 1.28554849 89.8206802 1.45434782 89.8176408 1.632 89.8285377 1.7813874 89.77938 1.92869618 89.6823167 2.03751978 89.5852534 2.14634338 89.4493408 2.20652824 89.308169 2.2032 89.4029101 2.21791097 89.4929816 2.25637399 89.5709155 2.3154 89.6446392 2.36751564 89.7016434 2.442235 89.734331 2.5296 89.7703761 2.62698288 89.7878035 2.73100164 89.7855986 2.8356L89.7855986 3.0362C89.7864612 3.10250264 89.7983947 3.16811796 89.8208451 3.23L89.3113732 3.23C89.2883861 3.11829774 89.2765719 3.00433338 89.2761268 2.89 89.2776734 2.79712613 89.2624461 2.70479706 89.2312676 2.618 89.1998107 2.56225297 89.152774 2.51828408 89.0966901 2.4922 88.9928127 2.45953684 88.8844788 2.44574248 88.7762676 2.4514L88.6577113 2.4514 88.6480986 3.2266zM88.9300704.4352C88.7020652.436899308 88.4770282.490220577 88.27.5916 88.1143256.675766692 87.9716921.784691569 87.8470423.9146 87.7032754 1.05995691 87.5869178 1.23304145 87.5041901 1.4246 87.4097437 1.63718424 87.3615597 1.86958413 87.3632042 2.1046 87.365999 2.39724605 87.439946 2.68417053 87.5778873 2.9376 87.7096334 3.19876223 87.9099943 3.41372727 88.1546479 3.5564 88.3922006 3.69926992 88.6602245 3.77534396 88.9332746 3.7774 89.205471 3.77660422 89.4727567 3.70042621 89.7086972 3.5564 89.9530167 3.41325835 90.1532661 3.19841301 90.2854577 2.9376 90.502115 2.54133009 90.5554261 2.06787787 90.4328521 1.6286 90.3843376 1.47576047 90.3187161 1.32964958 90.2373944 1.1934 90.150358 1.04720554 90.0422346.916413746 89.9169718.8058 89.7821062.68494154 89.6280341.590534318 89.4619718.527 89.2966458.462855904 89.1221196.429498777 88.9460915.4284L88.9300704.4352zM90.842993 2.1046C90.843773 2.36441642 90.796979 2.62191945 90.7052113 2.8628 90.620671 3.09749866 90.4920313 3.31150214 90.3271127 3.4918 90.1694633 3.66418925 89.9852466 3.80676891 89.7823944 3.9134 89.2774601 4.16611425 88.6952015 4.1797066 88.1802817 3.9508 87.9655057 3.85308332 87.7698792 3.71354402 87.6035211 3.5394 87.4524999 3.3787209 87.3260156 3.19403556 87.2286268 2.992 87.1056505 2.7118603 87.041163 2.40683571 87.0395775 2.0978 87.0397368 1.66645728 87.1687432 1.24626869 87.4080634.8976 87.5188293.743309968 87.6480887.605009975 87.7925704.4862 87.9543673.360651951 88.133895.263108511 88.3244718.1972 88.7934784.0278534769 89.3062713.059573706 89.7535563.2856 89.958739.386615529 90.1436767.528598965 90.2982746.7038 90.6379294 1.08133714 90.8282872 1.58265779 90.8301761 2.1046L90.842993 2.1046z"/>
    <path d="M58.9609507 21.046L59.406338 19.074 59.3550704 19.074C58.666162 20.3082 57.1409507 21.5662 55.7887676 21.5662 53.3022887 21.5662 52.2224648 20.3592 52.7159155 18.1662L55.7054577 4.9742 60.0023239 4.9742 57.400493 16.473C57.2819366 17.2176 57.3235915 17.8806 58.1502817 17.833 58.904764 17.828177 59.5511639 17.2589702 59.6947183 16.473L62.2997535 4.9742 66.5966197 4.9742 62.9598239 21.029 58.9609507 21.046zM74.3957042 10.8936C74.6103873 9.9484 74.9948944 8.2552 73.7548592 8.2552 72.5917254 8.2552 72.0566197 9.5472 71.7041549 11.0942L70.8486268 14.8784C70.5282042 16.2588 70.4448944 17.8636 71.4894718 17.8364 72.870493 17.8364 73.2133451 16.0888 73.4440493 15.0518L74.3957042 10.8936zM72.7935915 4.9878L72.345 6.936 72.4026761 6.936C73.6010563 5.3278 74.9660563 4.5832 76.4624296 4.5254 79.3013732 4.5254 79.4615845 7.5106 78.8880282 10.0334L77.6319718 15.5958C77.0135563 18.3158 75.6838028 21.4506 72.5244366 21.5628 71.761831 21.5934 70.4897535 21.1072 69.8489085 19.5228L69.7912324 19.5228 68.4839085 24.6568 64.1774296 24.6568 68.7851056 4.9878 72.7935915 4.9878zM13.6628169 4.9878L13.2398592 6.8374 13.2975352 6.8374C14.1871526 5.54672724 15.5409177 4.70478088 17.0368662 4.5118 18.4339085 4.4302 19.565 5.2904 19.7444366 6.6368L19.7989085 6.6368C20.9107746 5.202 22.1988732 4.5118 23.4164789 4.5118 25.4447535 4.5118 26.9891901 5.6882 26.4957394 7.8676L23.5158099 21.029 19.2189437 21.029 21.8175704 9.5608C21.9329225 8.8128 21.8175704 8.177 20.9812676 8.2382 20.2539441 8.23589853 19.6342631 8.79806147 19.5233451 9.5608L16.9215141 21.029 12.6214437 21.029 15.2168662 9.5608C15.2392958 8.8808 15.2168662 8.2382 14.489507 8.2382 13.621162 8.2382 13.1693662 8.6972 12.9194366 9.5608L10.3208099 21.029 6.02714789 21.029 9.66073944 4.9742 13.6628169 4.9878zM34.2563732 13.2464C33.2951056 13.736 32.4652113 13.9944 31.8275704 14.4228 31.0797011 14.8550411 30.5437246 15.6083837 30.356831 16.49 30.129331 17.51 30.5330634 18.2138 31.5616197 18.2138 32.8433099 18.2138 33.4200704 16.8096 33.6828169 15.776L34.2563732 13.2464zM32.9746831 19.618C31.6064789 20.8828 30.5298592 21.5662 28.8316197 21.5662 26.3964085 21.5662 25.2781338 19.8186 25.8580986 17.2652 26.6847887 13.617 28.8059859 12.4746 30.8470775 11.8252 32.888169 11.1758 34.7754577 10.948 35.1599648 9.2174 35.361831 8.33 35.0510211 7.5582 34.1986972 7.5582 32.631831 7.5582 32.375493 8.704 31.9845775 10.0504L27.6748944 10.0504C28.3990493 6.035 31.2828521 4.5118 34.7402113 4.5118 38.9858099 4.5118 40.2130282 5.8922 39.4183803 9.418L37.1754225 19.2576C37.0621056 19.8427965 37.0447622 20.4443478 37.1241549 21.0358L32.9490493 21.0358 32.9746831 19.618zM42.8340845 3.4102L43.6030986.0102 47.8967606.0102 47.1341549 3.4102 42.8340845 3.4102zM38.8448239 21.046L42.4816197 4.9912 46.7816901 4.9912 43.1448944 21.046 38.8448239 21.046z"/>
    <polygon points="45.41 21.046 50.156 0 54.456 0 49.71 21.046"/>
    <path d="M39.5914085,28.2574 L39.4055634,29.1516 L40.5430634,29.1516 L39.613838,33.6736 L40.6648239,33.6736 L41.5940493,29.1516 L42.7283451,29.1516 L42.9109859,28.2574 L39.5914085,28.2574 Z M35.6822535,28.2574 L34.5735915,33.6974 L35.5348592,33.6974 L36.3070775,29.903 L36.8357746,33.6974 L38.0437676,33.6974 L39.1396127,28.2574 L38.1783451,28.2574 L37.4029225,31.977 L36.8934507,28.2574 L35.6822535,28.2574 Z M33.086831,29.1958 L33.086831,31.6336 L32.0646831,31.6336 L33.086831,29.1958 Z M30.1549648,33.6974 L31.2444014,33.6974 L31.721831,32.5516 L33.1060563,32.5516 L33.1060563,33.6974 L34.1986972,33.6974 L33.9391549,28.2574 L32.6574648,28.2574 L30.1549648,33.6974 Z M27.7742254,28.2574 L27.8607394,33.677 L29.2129225,33.677 L31.5135563,28.2574 L30.4305282,28.2574 L28.8284155,32.2626 L28.8059859,32.2626 L28.8860915,28.2574 L27.7742254,28.2574 Z M24.6084507,28.2574 L23.4997887,33.6974 L26.4797183,33.6974 L26.6623592,32.8032 L24.7398239,32.8032 L25.0410211,31.3446 L26.7905282,31.3446 L26.973169,30.4538 L25.2268662,30.4538 L25.4864085,29.1754 L27.3480634,29.1754 L27.5275,28.2812 L24.6084507,28.2574 Z M23.0287676,33.6974 L23.2114085,32.8032 L21.3529577,32.8032 L22.2789789,28.2574 L21.227993,28.2574 L20.1257394,33.6974 L23.0287676,33.6974 Z M17.7225704,28.2574 L16.6171127,33.6974 L19.5970423,33.6974 L19.7796831,32.8032 L17.8571479,32.8032 L18.1551408,31.3446 L19.9046479,31.3446 L20.090493,30.4538 L18.3377817,30.4538 L18.6005282,29.1754 L20.4589789,29.1754 L20.6384155,28.2812 L17.7225704,28.2574 Z M12.5605634,33.6974 L13.6083451,33.6974 L14.076162,31.4058 L14.6529225,31.4058 C15.0726761,31.4058 15.2072535,31.6608 15.1303521,32.0858 L14.9509155,33.1058 C14.8956085,33.2916778 14.8956085,33.4911222 14.9509155,33.677 L16.0852113,33.677 L16.0852113,33.6294 C15.9089789,33.524 15.9474296,33.2282 16.0467606,32.6604 C16.2742606,31.518 16.2454225,31.1066 15.5533099,31.008 C16.1717254,30.8788 16.5434155,30.396 16.6972183,29.6752 C16.8862676,28.747 16.4601056,28.2778 15.598169,28.2778 L13.6596127,28.2778 L12.5605634,33.6974 Z M14.5503873,29.087 L15.043838,29.087 C15.5212676,29.087 15.726338,29.3352 15.6238028,29.8384 C15.5685293,30.3436943 15.1390429,30.7067573 14.6625352,30.651 L14.2235563,30.651 L14.5503873,29.087 Z M8.41109155,28.2574 L7.3056338,33.6974 L10.2887676,33.6974 L10.465,32.8032 L8.54246479,32.8032 L8.83725352,31.3446 L10.5867606,31.3446 L10.7694014,30.4538 L9.01989437,30.4538 L9.28584507,29.1754 L11.1282746,29.1754 L11.3109155,28.2812 L8.41109155,28.2574 Z M4.79672535,31.2392 L5.24852113,31.2392 C5.70992958,31.2392 6.01753521,31.4228 5.8893662,32.0484 C5.85989575,32.2993773 5.73686202,32.527353 5.54777974,32.6813436 C5.35869746,32.8353341 5.11934116,32.9024926 4.88323944,32.8678 L4.47630282,32.8678 L4.79672535,31.2392 Z M5.24211268,29.0666 L5.62341549,29.0666 C6.13929577,29.0666 6.3443662,29.257 6.23542254,29.7704 C6.12647887,30.2838 5.82528169,30.4844 5.24852113,30.4844 L4.95373239,30.4844 L5.24211268,29.0666 Z M3.24908451,33.6974 L5.02102113,33.6974 C6.24823944,33.6974 6.79616197,32.9562 6.96919014,32.113 C7.11978873,31.3888 6.83461268,30.9332 6.28348592,30.8482 C6.81504775,30.6992936 7.21655092,30.2360971 7.31204225,29.6616 C7.52352113,28.6246 6.99161972,28.3016 6.11366197,28.3016 L4.35774648,28.3016 L3.24908451,33.6974 Z"/>
  </g>
</svg>
