<svg xmlns="http://www.w3.org/2000/svg" width="47" height="34" viewBox="0 0 47 34">
  <path fill="#5B6282" d="M19.8610308,4.13155667 C21.3588228,2.53296695 23.4440879,1.54155671 25.750317,1.54155671 C28.8160272,1.54155671 31.4907502,3.29261895 32.9151081,5.89210609 C34.1529034,5.32558595 35.5230126,5.01047607 36.9645712,5.01047607 C42.4939639,5.01047607 46.9767547,9.64225255 46.9767547,15.3555675 C46.9767547,21.0695601 42.4939639,25.7013365 36.9645712,25.7013365 C36.2897709,25.7013365 35.6301868,25.6322157 34.9924344,25.5000728 C33.7380997,27.7919043 31.3478514,29.3403475 28.6043252,29.3403475 C27.4558416,29.3403475 26.3695455,29.0686075 25.4023318,28.5854391 C24.1307964,31.6491203 21.1682909,33.7972888 17.7155629,33.7972888 C14.119936,33.7972888 11.0555489,31.4668309 9.87927947,28.1984977 C9.36524045,28.3103109 8.83267749,28.3685892 8.28622159,28.3685892 C4.00520934,28.3685892 0.534618966,24.7770142 0.534618966,20.3458238 C0.534618966,17.3763367 2.09393683,14.7836261 4.41075106,13.3964649 C3.9337599,12.2722342 3.66847078,11.0314467 3.66847078,9.72695951 C3.66847078,4.63098889 7.70734882,0.499999949 12.6889625,0.499999949 C15.6137586,0.499999949 18.2130627,1.92443216 19.8610308,4.13155667 Z M7.26131883,17.7671405 C7.2322098,17.8450709 7.27190394,17.8613346 7.2811659,17.8748877 C7.36849299,17.9399427 7.45714322,17.9867009 7.54645502,18.0388804 C8.02013835,18.2963896 8.46735891,18.3716093 8.93508811,18.3716093 C9.88774731,18.3716093 10.4791899,17.8525251 10.4791899,17.0169757 L10.4791899,17.0007119 C10.4791899,16.2281845 9.81166689,15.947635 9.18516115,15.745016 L9.10378818,15.7179097 C8.631428,15.5606936 8.22390156,15.4251625 8.22390156,15.1066643 L8.22390156,15.0897229 C8.22390156,14.8173054 8.46206636,14.6167193 8.8312218,14.6167193 C9.24139451,14.6167193 9.72830921,14.7563163 10.0418929,14.9338621 C10.0418929,14.9338621 10.1338509,14.9948511 10.1675909,14.9033676 C10.1861149,14.8545764 10.3448914,14.4168109 10.3614306,14.369375 C10.379293,14.3178731 10.3475377,14.2799244 10.3151208,14.2595947 C9.95721204,14.036646 9.46235852,13.8841735 8.9503042,13.8841735 L8.85503828,13.8848512 C7.98309049,13.8848512 7.37444711,14.4242651 7.37444711,15.1974702 L7.37444711,15.2137339 C7.37444711,16.0289537 8.04593953,16.2932394 8.67509154,16.4775617 L8.77631158,16.5094116 C9.23477882,16.6537522 9.62973544,16.7777632 9.62973544,17.1084592 L9.62973544,17.1247229 C9.62973544,17.4269573 9.37304672,17.651939 8.95890459,17.651939 C8.79814335,17.651939 8.28542747,17.6485507 7.73169431,17.2900709 C7.66487585,17.2500892 7.62584329,17.22095 7.57424092,17.1891002 C7.54711659,17.1714811 7.478975,17.1409866 7.4492044,17.2331478 L7.26131883,17.7671405 Z M21.2078528,17.7671405 C21.1787437,17.8450709 21.2184379,17.8613346 21.2276998,17.8748877 C21.3150269,17.9399427 21.4036772,17.9867009 21.492989,18.0388804 C21.9666723,18.2963896 22.4138928,18.3716093 22.881622,18.3716093 C23.8342812,18.3716093 24.4257238,17.8525251 24.4257238,17.0169757 L24.4257238,17.0007119 C24.4257238,16.2281845 23.7582008,15.947635 23.1316951,15.745016 L23.0503221,15.7179097 C22.5779619,15.5606936 22.1704355,15.4251625 22.1704355,15.1066643 L22.1704355,15.0897229 C22.1704355,14.8173054 22.4086003,14.6167193 22.7777557,14.6167193 C23.1879284,14.6167193 23.6748431,14.7563163 23.9884268,14.9338621 C23.9884268,14.9338621 24.0803849,14.9948511 24.1141249,14.9033676 C24.1326488,14.8545764 24.2914253,14.4168109 24.3079646,14.369375 C24.3258269,14.3178731 24.2940716,14.2799244 24.2616547,14.2595947 C23.903746,14.036646 23.4088925,13.8841735 22.8968381,13.8841735 L22.8015722,13.8848512 C21.9296244,13.8848512 21.320981,14.4242651 21.320981,15.1974702 L21.320981,15.2137339 C21.320981,16.0289537 21.9924735,16.2932394 22.6216255,16.4775617 L22.7228455,16.5094116 C23.1813128,16.6537522 23.5769309,16.7777632 23.5769309,17.1084592 L23.5769309,17.1247229 C23.5769309,17.4269573 23.3195807,17.651939 22.9054385,17.651939 C22.7446773,17.651939 22.2319614,17.6485507 21.6782282,17.2900709 C21.6114098,17.2500892 21.5717157,17.2223053 21.5214364,17.1891002 C21.5042356,17.17758 21.4235242,17.1457302 21.3957383,17.2331478 L21.2078528,17.7671405 Z M31.5239634,15.254936 C31.4458983,14.9845514 31.3241696,14.7460166 31.1620852,14.5474635 C31.0000008,14.3482327 30.7949145,14.188306 30.5514571,14.0717492 C30.3086614,13.9558701 30.0215405,13.8969141 29.6993564,13.8969141 C29.3765108,13.8969141 29.0893899,13.9558701 28.8465941,14.0717492 C28.6031368,14.188306 28.3980504,14.3482327 28.2353045,14.5474635 C28.0738817,14.7466943 27.952153,14.9852291 27.8734263,15.254936 C27.7960227,15.5239653 27.7569902,15.8180679 27.7569902,16.1304671 C27.7569902,16.4428664 27.7960227,16.7376466 27.8734263,17.0059983 C27.952153,17.2757052 28.0732201,17.51424 28.235966,17.7134708 C28.3980504,17.9127015 28.6037983,18.0719506 28.8465941,18.1851191 C29.0900515,18.2982876 29.3765108,18.3558884 29.6993564,18.3558884 C30.0215405,18.3558884 30.3079998,18.2982876 30.5514571,18.1851191 C30.7942529,18.0719506 31.0000008,17.9127015 31.1620852,17.7134708 C31.3241696,17.5149177 31.4458983,17.2763829 31.5239634,17.0059983 C31.6020285,16.736969 31.6410611,16.4421887 31.6410611,16.1304671 C31.6410611,15.8187455 31.6020285,15.5239653 31.5239634,15.254936 Z M30.7287576,16.1304671 C30.7287576,16.6027931 30.6427536,16.9748261 30.473392,17.2377565 C30.3060151,17.4979763 30.0526342,17.6246979 29.6993564,17.6246979 C29.3454171,17.6246979 29.0933593,17.4986539 28.9286287,17.2377565 C28.7619133,16.9755038 28.6772325,16.6027931 28.6772325,16.1304671 C28.6772325,15.6588188 28.7619133,15.2874635 28.9286287,15.0272437 C29.0933593,14.7697346 29.3454171,14.6443683 29.6993564,14.6443683 C30.0526342,14.6443683 30.3060151,14.7697346 30.4740536,15.0272437 C30.6427536,15.2874635 30.7287576,15.6588188 30.7287576,16.1304671 Z M38.0541144,17.4985848 C38.0276516,17.419299 37.9528943,17.4491159 37.9528943,17.4491159 C37.8371198,17.4945188 37.714068,17.5365335 37.5830773,17.5575408 C37.450102,17.5785481 37.3038953,17.5893906 37.1471034,17.5893906 C36.7620703,17.5893906 36.4564255,17.4721562 36.2374462,17.240398 C36.0178053,17.0086397 35.8947535,16.6338961 35.8960767,16.1270097 C35.8973998,15.6655262 36.0058971,15.3185665 36.2010599,15.0542808 C36.3948996,14.7913504 36.6899593,14.6564969 37.0835928,14.6564969 C37.411731,14.6564969 37.661804,14.6951233 37.9237853,14.7798302 C37.9237853,14.7798302 37.9866343,14.8076141 38.0164049,14.7235848 C38.0858697,14.5257094 38.1374721,14.3840793 38.2115678,14.1665518 C38.232738,14.1048852 38.1811356,14.0784566 38.1626117,14.0710024 C38.0594069,14.0296654 37.8159496,13.9625775 37.6320334,13.934116 C37.4600255,13.9070097 37.2589086,13.892779 37.0352983,13.892779 C36.701206,13.892779 36.4035,13.9510573 36.148796,14.0676141 C35.8947535,14.1834932 35.6790821,14.34342 35.5083973,14.5426507 C35.3377125,14.7418815 35.208045,14.9804163 35.1213795,15.2501233 C35.0353755,15.5191526 34.991712,15.8146104 34.991712,16.1270097 C34.991712,16.8026324 35.169674,17.3488229 35.5209671,17.7486397 C35.8729218,18.1498119 36.4015153,18.3537862 37.0908701,18.3537862 C37.4983965,18.3537862 37.916508,18.2690793 38.2168603,18.1477789 C38.2168603,18.1477789 38.2744168,18.1193174 38.2492772,18.0508741 L38.0541144,17.4985848 Z M42.1228231,15.1013117 C42.0553431,14.8404143 41.8879662,14.5768062 41.7781457,14.4561835 C41.6048147,14.2650846 41.435453,14.1315864 41.2674145,14.0570443 C41.0477737,13.9608172 40.7844693,13.8971176 40.4960252,13.8971176 C40.1599482,13.8971176 39.854965,13.9547183 39.6075382,14.0739857 C39.3594499,14.1932531 39.1510557,14.3558905 38.9876482,14.5585095 C38.8242407,14.7604509 38.7011888,15.0010187 38.6231237,15.2741139 C38.544397,15.5458538 38.5047029,15.8419893 38.5047029,16.1543886 C38.5047029,16.4722091 38.5457202,16.7683446 38.6270931,17.0346633 C38.7091277,17.303015 38.8401183,17.5395168 39.0174188,17.7353593 C39.1940577,17.9325571 39.4216374,18.0870626 39.6942037,18.1948098 C39.9647854,18.3018794 40.2935851,18.3574472 40.671341,18.3567695 C41.4486844,18.3540589 41.8581956,18.1765131 42.0268956,18.0809637 C42.0566662,18.0640223 42.0851137,18.0342054 42.049389,17.9488208 L41.8734116,17.4439673 C41.8469489,17.3687476 41.7721916,17.3965314 41.7721916,17.3965314 C41.5796751,17.4697182 41.3057855,17.6011834 40.6673716,17.5998281 C40.2499216,17.5991505 39.9403074,17.4731065 39.7464677,17.2759087 C39.5473354,17.0739673 39.4500848,16.7771542 39.432884,16.358363 L42.1248078,16.3610736 C42.1248078,16.3610736 42.1955957,16.3597183 42.202873,16.2892421 C42.2055192,16.2594252 42.2954926,15.7227219 42.1228231,15.1013117 Z M39.4454538,15.6779967 C39.4831633,15.4157439 39.5539511,15.1975388 39.66311,15.0274472 C39.8278407,14.7692604 40.0792368,14.6276304 40.4325146,14.6276304 C40.7857924,14.6276304 41.0193262,14.7699381 41.1867031,15.0274472 C41.2978467,15.1975388 41.3461412,15.4252311 41.3653267,15.6779967 L39.4454538,15.6779967 Z M20.5637492,15.1013117 C20.4962692,14.8404143 20.3295538,14.5768062 20.2197334,14.4561835 C20.0464023,14.2650846 19.8770407,14.1315864 19.7090022,14.0570443 C19.4893613,13.9608172 19.2260569,13.8971176 18.9376129,13.8971176 C18.6021975,13.8971176 18.2965526,13.9547183 18.0491259,14.0739857 C17.8010375,14.1932531 17.5926433,14.3558905 17.4292358,14.5585095 C17.2658283,14.7604509 17.1427765,15.0010187 17.0647114,15.2741139 C16.9866463,15.5458538 16.9462905,15.8419893 16.9462905,16.1543886 C16.9462905,16.4722091 16.9873078,16.7683446 17.0686808,17.0346633 C17.1507153,17.303015 17.281706,17.5395168 17.4590064,17.7353593 C17.6356453,17.9325571 17.863225,18.0870626 18.1357914,18.1948098 C18.4063731,18.3018794 18.7351728,18.3574472 19.1129286,18.3567695 C19.8902721,18.3540589 20.2997832,18.1765131 20.4684833,18.0809637 C20.4982539,18.0640223 20.5267014,18.0342054 20.4909766,17.9488208 L20.3156609,17.4439673 C20.2885366,17.3687476 20.2137793,17.3965314 20.2137793,17.3965314 C20.0212627,17.4697182 19.7480348,17.6011834 19.1082977,17.5998281 C18.6915093,17.5991505 18.381895,17.4731065 18.1880553,17.2759087 C17.9889231,17.0739673 17.8916725,16.7771542 17.8744717,16.358363 L20.5663955,16.3610736 C20.5663955,16.3610736 20.6371834,16.3597183 20.6444606,16.2892421 C20.6471069,16.2594252 20.7370803,15.7227219 20.5637492,15.1013117 Z M17.8870415,15.6779967 C17.9254125,15.4157439 17.9955388,15.1975388 18.1046977,15.0274472 C18.2694283,14.7692604 18.5208245,14.6276304 18.8741023,14.6276304 C19.2273801,14.6276304 19.4609139,14.7699381 19.6289524,15.0274472 C19.7394344,15.1975388 19.7877289,15.4252311 19.8069144,15.6779967 L17.8870415,15.6779967 Z M13.1395569,15.5460563 C13.030398,15.5379244 12.8888223,15.5331808 12.7194606,15.5331808 C12.4885731,15.5331808 12.2656244,15.5629977 12.0565686,15.6205984 C11.8461897,15.6781991 11.656981,15.7683273 11.494235,15.8875947 C11.3308275,16.0075398 11.1991753,16.1606899 11.1039094,16.3423017 C11.0086435,16.5239134 10.960349,16.7380526 10.960349,16.9779427 C10.960349,17.2218987 11.0013662,17.4340049 11.0834008,17.6074848 C11.1654353,17.7816423 11.2838561,17.9266606 11.4346938,18.0384738 C11.5842084,18.150287 11.7687861,18.2322833 11.9831344,18.2817522 C12.1941749,18.331221 12.4336629,18.3562943 12.6956441,18.3562943 C12.9715184,18.3562943 13.246731,18.333254 13.5133433,18.2864958 C13.7773093,18.2404152 14.101478,18.1733273 14.1914514,18.15232 C14.2807632,18.130635 14.3799985,18.1028511 14.3799985,18.1028511 C14.446817,18.0859097 14.4415244,18.0127229 14.4415244,18.0127229 L14.4402013,15.4911661 C14.4402013,14.9381991 14.2959793,14.5282174 14.0121662,14.2740966 C13.7296763,14.0206534 13.3135495,13.8925764 12.775694,13.8925764 C12.5739155,13.8925764 12.2490851,13.921038 12.0545839,13.9610197 C12.0545839,13.9610197 11.4664491,14.0775764 11.2243149,14.2713859 C11.2243149,14.2713859 11.1713894,14.3052687 11.2004985,14.3811662 L11.3910303,14.9056717 C11.4148468,14.9734372 11.479019,14.9503969 11.479019,14.9503969 C11.479019,14.9503969 11.4995276,14.9422651 11.5233441,14.9280343 C12.0413525,14.639353 12.6963057,14.6481625 12.6963057,14.6481625 C12.987396,14.6481625 13.2110063,14.7077962 13.361844,14.8263859 C13.5087123,14.9415874 13.5834696,15.1157449 13.5834696,15.4830343 L13.5834696,15.5995911 C13.3519205,15.5657083 13.1395569,15.5460563 13.1395569,15.5460563 Z M12.0684768,17.4834738 C11.9632874,17.3974115 11.9487329,17.3757266 11.9130081,17.3201588 C11.8600826,17.2354518 11.8329583,17.1148291 11.8329583,16.9616789 C11.8329583,16.7190782 11.9110234,16.5449207 12.0731078,16.4276863 C12.0711231,16.4283639 12.3046569,16.2210013 12.8537591,16.2284555 C13.2394538,16.2338768 13.5841312,16.2921551 13.5841312,16.2921551 L13.5841312,17.5458181 L13.5847927,17.5458181 C13.5847927,17.5458181 13.2427616,17.6210379 12.8577285,17.6447559 C12.3099495,17.6786386 12.0664921,17.4827962 12.0684768,17.4834738 Z M34.8510574,14.1252829 C34.871566,14.0629385 34.8285641,14.0331217 34.8107017,14.0263451 C34.7650534,14.0080484 34.5361506,13.9585796 34.3595117,13.9470594 C34.02145,13.9260521 33.8335645,13.9843305 33.665526,14.0615832 C33.4988106,14.138836 33.3135713,14.2635246 33.2103666,14.4051546 L33.2103666,14.0697151 C33.2103666,14.0229569 33.1779497,13.9856858 33.132963,13.9856858 L32.4429467,13.9856858 C32.39796,13.9856858 32.3655431,14.0229569 32.3655431,14.0697151 L32.3655431,18.1824073 C32.3655431,18.2284879 32.402591,18.2664366 32.4475776,18.2664366 L33.1547948,18.2664366 C33.1997815,18.2664366 33.2361677,18.2284879 33.2361677,18.1824073 L33.2361677,16.1277554 C33.2361677,15.8519495 33.2659383,15.5768213 33.3254795,15.4040191 C33.3836976,15.2332499 33.4630859,15.0963634 33.5609981,14.9981034 C33.6595718,14.9005209 33.771377,14.8320777 33.8937672,14.7934513 C34.0188037,14.7541473 34.1570716,14.7412719 34.2549838,14.7412719 C34.395898,14.7412719 34.5507051,14.7785429 34.5507051,14.7785429 C34.6023075,14.7846418 34.6314165,14.7521143 34.6486173,14.7040008 C34.6949271,14.5779568 34.8259178,14.2005026 34.8510574,14.1252829 Z M28.2127421,12.2191757 C28.1267381,12.1920695 28.048673,12.1737728 27.9467914,12.1541208 C27.8435866,12.1351464 27.7205348,12.1256592 27.5809438,12.1256592 C27.0940291,12.1256592 26.7103191,12.2666116 26.4410606,12.5444504 C26.1731252,12.8209339 25.9911938,13.2417581 25.8998972,13.7954028 L25.8668188,13.9817581 L25.2555292,13.9817581 C25.2555292,13.9817581 25.1814334,13.9790475 25.1655558,14.0617215 L25.0656589,14.6356958 C25.0583816,14.6899083 25.0815365,14.7244687 25.152986,14.7244687 L25.7477364,14.7244687 L25.1443856,18.1750914 C25.0974142,18.4529302 25.0431655,18.6813002 24.9829628,18.85478 C24.9240831,19.0255492 24.8665266,19.1536262 24.7950772,19.2471426 C24.726274,19.3365932 24.6614403,19.4030034 24.5489736,19.4416298 C24.4563539,19.4734796 24.3491798,19.4883881 24.2320821,19.4883881 C24.1672483,19.4883881 24.0805828,19.4775456 24.0164106,19.4639924 C23.9529,19.451117 23.91916,19.4368862 23.8708655,19.4158789 C23.8708655,19.4158789 23.8014007,19.3887727 23.7736148,19.4599265 C23.7517831,19.5188826 23.5930065,19.9654576 23.573821,20.0203477 C23.5552971,20.0752379 23.5817599,20.1179302 23.6154999,20.1308056 C23.6948881,20.1592672 23.7537678,20.1782415 23.8616035,20.2046701 C24.0111181,20.2405858 24.1374777,20.2426188 24.2558986,20.2426188 C24.5033253,20.2426188 24.7295819,20.2067031 24.9168059,20.1375822 C25.1046914,20.0677836 25.2687605,19.9464833 25.4143057,19.7824906 C25.5710975,19.6049448 25.6696713,19.4192672 25.7636141,19.1651463 C25.8568953,18.9144137 25.9369451,18.6026921 26.0004557,18.2394687 L26.6071144,14.7244687 L27.4936167,14.7244687 C27.4936167,14.7244687 27.568374,14.7271793 27.5835901,14.6438277 L27.6841485,14.070531 C27.6907642,14.0156409 27.6682709,13.9817581 27.5961599,13.9817581 L26.7354587,13.9817581 C26.7400897,13.9621061 26.7791223,13.6517398 26.8776961,13.3596702 C26.9200365,13.2356592 26.9994247,13.1346885 27.0662432,13.0655676 C27.1324001,12.9978021 27.2084805,12.9496885 27.2918382,12.9219046 C27.3771806,12.8934431 27.4744312,12.87989 27.5809438,12.87989 C27.6616552,12.87989 27.741705,12.8893772 27.8019078,12.9022526 C27.8852655,12.9205493 27.9176823,12.9300365 27.9395141,12.9368131 C28.0275028,12.9639193 28.039411,12.9374907 28.0566118,12.8941208 L28.2623597,12.3154028 C28.2835299,12.2530585 28.231266,12.2266299 28.2127421,12.2191757 Z M16.1870743,18.182611 L16.1870743,12.2978491 C16.1870743,12.2517686 16.1546574,12.2144975 16.1096707,12.2144975 L15.3958379,12.2144975 C15.3508512,12.2144975 15.3190959,12.2517686 15.3190959,12.2978491 L15.3190959,18.182611 C15.3190959,18.2286915 15.3508512,18.2659626 15.3958379,18.2659626 L16.1096707,18.2659626 C16.1546574,18.2659626 16.1870743,18.2286915 16.1870743,18.182611 Z"/>
</svg>
